<svg xmlns="http://www.w3.org/2000/svg" width="61" height="61">
    <path fill="#FFF" fill-rule="evenodd" d="M52.161 52.128c-11.726 11.703-30.74 11.703-42.465 0-11.726-11.703-11.726-30.68 0-42.384 11.725-11.703 30.739-11.703 42.465 0 11.725 11.704 11.725 30.681 0 42.384zm-2.655-39.735c-10.261-10.241-26.895-10.241-37.156 0-10.261 10.242-10.261 26.845 0 37.086s26.895 10.241 37.156 0c10.262-10.241 10.262-26.844 0-37.086zM31.668 33.741l6.428 3.706V49.19l-6.43-3.706.002-11.743zm-.002-13.17l6.429-3.707.001 11.743-6.43 3.706V20.571zm0-7.888l6.016 3.467-6.016 3.466v-6.933zm-12.184 6.545l11.356-6.544v7.409l-4.924 2.84-6.432-3.705zm-.414 7.651v-6.937l6.018 3.468-6.018 3.469zM25.5 41.934l-6.432-3.707V27.833l6.432-3.708v17.809z"/>
</svg>
