<svg xmlns="http://www.w3.org/2000/svg" width="198" height="87">
    <path fill="#FFF" fill-rule="evenodd" d="M185.331 65.266l.003-23.367 12.667 7.374V72.64l-12.67-7.374zm0-49.574l12.667-7.375.003 23.366-12.67 7.374V15.692zm0-15.695l11.853 6.899-11.853 6.898V-.003zm-24.008 13.024L183.7 0v14.743l-9.704 5.65-12.673-7.372zm-.815 15.225V14.441l11.858 6.902-11.858 6.903zm-9.856 58.755c-.465 0-.761-.383-.761-.892v-7.662c-2.49 1.106-4.856 1.659-7.05 1.659-5.109 0-8.023-2.894-8.487-8.212a30.726 30.726 0 0 1 0-5.576c.464-5.407 3.378-8.385 8.739-8.385 1.478 0 2.999.299 4.56.851 1.521.594 2.662 1.15 3.379 1.659.296.214.422.512.422.936v24.73c0 .594-.254.892-.802.892zm-.761-25.367c-.675-.468-1.689-.977-3.039-1.445-1.393-.468-2.618-.682-3.759-.682-4.264 0-6.629 2.171-7.094 6.513-.21 1.913-.21 3.703 0 6.172.296 4.213 2.578 6.34 6.798 6.34 1.309 0 2.618-.214 3.971-.597 1.35-.383 2.406-.766 3.123-1.191v-15.11zM128.413 78c-1.646 1.574-3.672 2.382-6.121 2.382-2.491 0-4.56-.808-6.206-2.382-1.649-1.577-2.534-3.619-2.618-6.044a60.103 60.103 0 0 1 0-5.535c.084-2.425.929-4.426 2.574-5.916 1.648-1.53 3.759-2.296 6.25-2.296 2.49 0 4.518.766 6.165 2.296 1.646 1.49 2.49 3.491 2.618 5.916a40.571 40.571 0 0 1 0 5.535c-.128 2.425-1.013 4.467-2.662 6.044zm1.015-11.79c-.211-3.788-2.957-6.427-7.136-6.427-4.18 0-6.967 2.639-7.179 6.427-.126 2.552-.126 4.257 0 6 .339 3.959 3.125 6.598 7.179 6.598 4.053 0 6.798-2.639 7.136-6.598.17-1.828.17-3.574 0-6zm-19.793 14.145c-.465 0-.801-.38-.801-.851V52.253c0-.553.252-.851.76-.851.549 0 .801.298.801.851v27.251c0 .556-.252.851-.76.851zm-12.695.12c-1.477 0-2.998-.298-4.56-.851-1.521-.594-2.662-1.15-3.379-1.659-.296-.213-.422-.512-.422-.936V52.3c0-.594.254-.893.803-.893.464 0 .76.384.76.893v7.661c2.49-1.106 4.856-1.659 7.051-1.659 5.108 0 8.022 2.894 8.487 8.213a30.897 30.897 0 0 1 0 5.575c-.465 5.407-3.379 8.385-8.74 8.385zm7.094-14.259c-.296-4.213-2.578-6.34-6.798-6.34-1.309 0-2.618.214-3.971.597-1.349.384-2.406.767-3.123 1.191v15.11c.675.469 1.689.978 3.039 1.446 1.393.468 2.618.681 3.759.681 4.264 0 6.63-2.17 7.094-6.512.21-1.914.21-3.703 0-6.173zM82.653 78.034c-1.68 1.536-3.821 2.316-6.359 2.316-2.546 0-4.613-.758-6.318-2.316-1.694-1.546-2.652-3.52-2.847-5.852a48.451 48.451 0 0 1-.002-6.001c.203-2.395 1.142-4.336 2.795-5.77 1.716-1.486 3.858-2.241 6.372-2.241 2.548 0 4.632.733 6.371 2.241 1.695 1.47 2.636 3.408 2.795 5.758a48.578 48.578 0 0 1 0 6.009c-.157 2.327-1.101 4.298-2.807 5.856zm-.45-11.341c-.191-3.211-2.566-5.369-5.909-5.369-3.327 0-5.629 2.103-5.867 5.366-.129 2.031-.127 3.726.002 5.032.329 3.376 2.577 5.474 5.865 5.474 3.314 0 5.577-2.098 5.908-5.486.086-1.085.086-2.769.001-5.017zM54.73 80.35a14.37 14.37 0 0 1-4.815-.814c-1.504-.573-2.649-1.15-3.421-1.72-.386-.269-.591-.689-.591-1.214V53.049c0-.954.724-1.703 1.649-1.703.894 0 1.647.78 1.647 1.703v6.666l.823-.359c1.811-.787 3.593-1.186 5.299-1.186 4.924 0 8.004 2.921 8.451 8.033.206 1.708.206 3.699-.003 5.92-.45 5.15-3.829 8.227-9.039 8.227zm5.782-13.747c-.232-3.453-2.128-5.279-5.486-5.279-2.22 0-4.09.474-5.553 1.412l-.274.175v12.501l.24.179c1.039.772 3.323 1.605 5.207 1.605 3.515 0 5.544-1.909 5.866-5.533.084-1.25.086-2.947 0-5.06zM39.996 78.034c-1.682 1.536-3.823 2.316-6.359 2.316-2.547 0-4.613-.758-6.319-2.316-1.693-1.546-2.651-3.52-2.848-5.852a48.06 48.06 0 0 1 0-6.001c.202-2.395 1.141-4.336 2.795-5.77 1.714-1.486 3.858-2.241 6.372-2.241 2.547 0 4.631.733 6.371 2.241 1.695 1.47 2.635 3.408 2.794 5.758a48.972 48.972 0 0 1 0 6.009c-.157 2.327-1.102 4.298-2.806 5.856zm-.451-11.341c-.19-3.211-2.565-5.369-5.908-5.369-3.327 0-5.629 2.103-5.867 5.366-.13 2.031-.129 3.726 0 5.032.331 3.376 2.578 5.474 5.867 5.474 3.313 0 5.575-2.098 5.906-5.486.088-1.085.088-2.769.002-5.017zM18.526 79.83l-7.393-9.197c-.855-1.044-1.525-1.575-2.818-1.575H3.334v9.529c0 .97-.775 1.79-1.691 1.79-.908 0-1.647-.803-1.647-1.79v-24.43c0-1.679 1.036-2.723 2.702-2.723h8.615c2.673 0 4.839.772 6.622 2.365 1.767 1.543 2.626 3.651 2.626 6.447 0 4.287-2.102 6.999-6.075 7.844l-.949.201 7.471 9.205c.575.64.528 1.809-.077 2.39-.747.658-1.824.616-2.405-.056zm-1.347-19.543c0-2.562-1.068-5.615-6.162-5.615H3.334v11.232h7.471c5.268 0 6.374-3.054 6.374-5.617zm156.003-2.086l-12.674-7.375V30.143l12.674-7.379v35.437z"/>
</svg>
