<svg xmlns="http://www.w3.org/2000/svg" width="196" height="133">
    <path fill="#FFF" fill-rule="evenodd" d="M166.448 132.613a1.519 1.519 0 0 1-2.145-.116 1.506 1.506 0 0 1 .117-2.135c18.139-16.2 28.541-39.474 28.541-63.854 0-24.38-10.402-47.654-28.541-63.854a1.507 1.507 0 0 1-.117-2.136 1.522 1.522 0 0 1 2.145-.115C185.229 17.176 196 41.27 196 66.508c0 25.237-10.771 49.332-29.552 66.105zm-8.584-21.787a1.522 1.522 0 0 1-2.145.136 1.508 1.508 0 0 1-.138-2.134 63.848 63.848 0 0 0 16.024-42.32 63.85 63.85 0 0 0-16.024-42.321 1.508 1.508 0 0 1 .138-2.134 1.523 1.523 0 0 1 2.145.136 66.872 66.872 0 0 1 16.78 44.319 66.867 66.867 0 0 1-16.78 44.318zm-12.002-21.145c-.254 0-.513-.065-.749-.199a1.509 1.509 0 0 1-.57-2.062c3.794-6.638 5.719-13.674 5.719-20.912 0-7.238-1.925-14.275-5.719-20.912a1.51 1.51 0 0 1 .57-2.063 1.524 1.524 0 0 1 2.071.567c4.059 7.099 6.117 14.638 6.117 22.408 0 7.77-2.058 15.308-6.117 22.408a1.52 1.52 0 0 1-1.322.765zm-29.166-8.552c.442.441.663 1.027.659 1.608a2.248 2.248 0 0 1-.659 1.608 1.883 1.883 0 0 1-.226.194l-15.175 15.115s-2.071 2.255-4.337 2.255c0 0-2.261 0-2.261-2.255V73.071L80.663 87.046a2.272 2.272 0 0 1-3.204 0 2.248 2.248 0 0 1 0-3.19l17.238-17.164v-1.066L77.233 48.234a2.248 2.248 0 0 1 0-3.19 2.272 2.272 0 0 1 3.204 0l14.26 14.203V31.986h.004c0-2.255 2.031-2.255 2.031-2.255 2.036 0 3.881 2.255 3.881 2.255L116.47 47.78c.08.057.155.118.226.189.442.445.663 1.027.659 1.613a2.25 2.25 0 0 1-.659 1.607 2.201 2.201 0 0 1-.226.194l-14.834 14.776 14.834 14.776c.08.058.155.123.226.194zm-4.82-31.547l-12.652-12.6v25.199l12.652-12.599zM101.255 72.16l-2.031-2.023v25.2l12.652-12.6-10.621-10.577zm-50.37 17.322a1.517 1.517 0 0 1-2.071-.566c-4.058-7.1-6.116-14.638-6.116-22.408 0-7.77 2.058-15.309 6.116-22.408a1.525 1.525 0 0 1 2.071-.567c.73.413.985 1.337.57 2.063-3.794 6.637-5.718 13.674-5.718 20.912 0 7.238 1.924 14.274 5.718 20.912.415.726.16 1.649-.57 2.062zm-10.604 21.48a1.521 1.521 0 0 1-2.145-.136 66.867 66.867 0 0 1-16.782-44.318 66.87 66.87 0 0 1 16.782-44.319 1.525 1.525 0 0 1 2.145-.136c.63.552.691 1.508.138 2.134a63.85 63.85 0 0 0-16.026 42.321 63.846 63.846 0 0 0 16.026 42.32 1.508 1.508 0 0 1-.138 2.134zM3.039 66.508c0 24.381 10.402 47.655 28.54 63.854.625.557.677 1.514.116 2.135a1.517 1.517 0 0 1-1.13.503c-.362 0-.724-.127-1.014-.387C10.771 115.841 0 91.746 0 66.508 0 41.27 10.771 17.175 29.551.403a1.524 1.524 0 0 1 2.144.115 1.507 1.507 0 0 1-.116 2.136C13.441 18.853 3.039 42.127 3.039 66.508z"/>
</svg>
