<svg xmlns="http://www.w3.org/2000/svg" width="203" height="72">
    <path fill="#FFF" fill-rule="evenodd" d="M198.105 42.104c-2.703 0-4.894-2.17-4.894-4.847 0-2.677 2.191-4.848 4.894-4.848 2.703 0 4.894 2.171 4.894 4.848s-2.191 4.847-4.894 4.847zm-21.217 0c-2.703 0-4.894-2.17-4.894-4.847 0-2.677 2.191-4.848 4.894-4.848 2.703 0 4.894 2.171 4.894 4.848s-2.191 4.847-4.894 4.847zm-21.217 0c-2.703 0-4.894-2.17-4.894-4.847 0-2.677 2.191-4.848 4.894-4.848 2.703 0 4.894 2.171 4.894 4.848s-2.191 4.847-4.894 4.847zm-35.394 9.162c.443.44.665 1.024.66 1.604a2.23 2.23 0 0 1-.66 1.603c-.071.07-.147.136-.227.193l-15.207 15.073s-2.076 2.249-4.347 2.249c0 0-2.266 0-2.266-2.249V43.232L84.166 57.166a2.285 2.285 0 0 1-3.211 0 2.234 2.234 0 0 1 0-3.181L98.23 36.871v-1.064L80.729 18.464a2.233 2.233 0 0 1 0-3.18 2.285 2.285 0 0 1 3.211 0l14.29 14.163V2.263h.004c0-2.249 2.036-2.249 2.036-2.249 2.04 0 3.89 2.249 3.89 2.249l15.89 15.749c.08.057.156.118.227.189.443.443.665 1.023.66 1.608a2.238 2.238 0 0 1-.66 1.603c-.071.07-.147.132-.227.193l-14.866 14.734 14.866 14.734c.08.057.156.123.227.193zm-4.83-31.457l-12.68-12.564v25.127l12.68-12.563zm-10.644 22.513l-2.036-2.016v25.128l12.68-12.564-10.644-10.548zm-57.483-.218c-2.702 0-4.894-2.17-4.894-4.847 0-2.677 2.192-4.848 4.894-4.848 2.703 0 4.895 2.171 4.895 4.848s-2.192 4.847-4.895 4.847zm-21.216 0c-2.703 0-4.895-2.17-4.895-4.847 0-2.677 2.192-4.848 4.895-4.848 2.702 0 4.894 2.171 4.894 4.848s-2.192 4.847-4.894 4.847zm-21.217 0c-2.703 0-4.895-2.17-4.895-4.847 0-2.677 2.192-4.848 4.895-4.848 2.703 0 4.894 2.171 4.894 4.848s-2.191 4.847-4.894 4.847z"/>
</svg>
