<svg xmlns="http://www.w3.org/2000/svg" width="121" height="120">
    <path fill="#FFF" fill-rule="evenodd" d="M103.341 102.296c-23.451 23.407-61.479 23.407-84.93 0-23.451-23.406-23.451-61.361 0-84.767s61.479-23.406 84.93 0c23.451 23.406 23.451 61.361 0 84.767zm-5.308-79.469c-20.523-20.483-53.792-20.483-74.314 0-20.522 20.483-20.522 53.688 0 74.171 20.522 20.483 53.791 20.483 74.314 0 20.522-20.483 20.522-53.688 0-74.171zm-5.574 41.016l-27.648-.003.003 27.595a3.938 3.938 0 0 1-3.944 3.937 3.936 3.936 0 0 1-3.947-3.94l-.006-27.568-27.622-.006a3.937 3.937 0 1 1-.003-7.876l27.651.005-.005-27.598a3.937 3.937 0 0 1 3.943-3.936 3.936 3.936 0 0 1 3.948 3.939l.006 27.568 27.621.007a3.935 3.935 0 0 1 3.947 3.94c.004 2.172-1.761 3.933-3.944 3.936z"/>
</svg>
