<svg xmlns="http://www.w3.org/2000/svg" width="60" height="60">
    <path fill="#FFF" fill-rule="evenodd" d="M30 60C13.433 60 0 46.567 0 30S13.433 0 30 0s30 13.433 30 30-13.433 30-30 30zm0-3.75c14.498 0 26.25-11.752 26.25-26.25a26.14 26.14 0 0 0-1.879-9.715L25.955 33.7l-6.635 3.129-12.323 5.814C11.464 50.752 20.087 56.25 30 56.25zm0-52.5C15.502 3.75 3.75 15.502 3.75 30c0 3.489.695 6.812 1.931 9.858l16.199-7.642 2.642-1.246 1.239-.584 4.904-2.313 22.417-10.585C48.637 9.305 39.968 3.75 30 3.75zm11.083 18.177l-5.778 2.724a.53.53 0 0 1-.604-.857l2.548-2.541-5.504-5.505v10.247a.53.53 0 0 1-.304.48l-4.299 2.029a.543.543 0 0 1-.604-.103l-7.497-7.5a1.743 1.743 0 0 1-.512-1.23c0-.469.183-.909.512-1.242a1.755 1.755 0 0 1 1.238-.513h.004c.465.004.901.184 1.23.517l6.742 6.742V11.772c0-1.282.971-1.747 1.622-1.747.952 0 2.051.802 2.454 1.373l.004-.004 8.507 8.507c.015.011.066.055.117.103.333.341.516.787.509 1.256a.99.99 0 0 1-.117.373c-.026.172-.11.22-.268.294zM21.718 36.784a.585.585 0 0 1 .151-.103l6.504-3.069c.044-.022.092-.005.139-.014.026-.018.018-.06.047-.074l2.428-1.142a.518.518 0 0 1 .198-.051.474.474 0 0 1 .165-.121l2.332-1.103a.537.537 0 0 1 .605.103l6.555 6.555a1.6 1.6 0 0 1 .132.125c.315.315.501.769.494 1.23.007.451-.179.908-.509 1.238-.058.055-.121.11-.183.154l-8.075 8.093c-.037.037-1.267 1.37-2.703 1.37-.699 0-1.743-.466-1.743-1.747V35.191l-6.621 6.621a1.741 1.741 0 0 1-1.23.512H20.4a1.745 1.745 0 0 1-1.238-2.984l2.556-2.556zm10.027 7.833l5.504-5.504-5.504-5.504v11.008z"/>
</svg>
