<svg xmlns="http://www.w3.org/2000/svg" width="60" height="60">
    <path fill="#FFF" fill-rule="evenodd" d="M30 60C13.433 60 0 46.567 0 30S13.433 0 30 0s30 13.433 30 30-13.433 30-30 30zm0-56.25C15.502 3.75 3.75 15.502 3.75 30S15.502 56.25 30 56.25 56.25 44.498 56.25 30 44.498 3.75 30 3.75zm12.552 38.798a1.97 1.97 0 0 1-2.787 0L30 32.78l-9.765 9.768c-.773.77-2.019.77-2.786 0a1.967 1.967 0 0 1 0-2.789L27.203 30l-9.754-9.759a1.97 1.97 0 1 1 2.786-2.789L30 27.222l9.765-9.77a1.972 1.972 0 0 1 2.787 2.789L32.797 30l9.755 9.759a1.969 1.969 0 0 1 0 2.789z"/>
</svg>
