<svg xmlns="http://www.w3.org/2000/svg" width="60" height="60">
    <path fill="#FFF" fill-rule="evenodd" d="M30 60C13.432 60 0 46.567 0 30S13.432 0 30 0c16.568 0 30 13.433 30 30S46.568 60 30 60zm0-56.25C15.502 3.75 3.75 15.502 3.75 30S15.502 56.25 30 56.25 56.25 44.498 56.25 30 44.498 3.75 30 3.75zm10.584 34.498c.237.238.356.553.354.866a1.214 1.214 0 0 1-.475.971l-8.139 8.144s-1.111 1.215-2.327 1.215c0 0-1.212 0-1.212-1.215V33.907l-7.527 7.529a1.216 1.216 0 0 1-1.718-1.719l9.245-9.247v-.575l-9.366-9.371a1.214 1.214 0 1 1 1.718-1.718l7.648 7.652V11.771h.002c0-1.216 1.09-1.216 1.09-1.216 1.091 0 2.086 1.216 2.081 1.216l8.505 8.509a.975.975 0 0 1 .121.102c.237.24.356.553.354.869a1.219 1.219 0 0 1-.475.971l-7.956 7.961 7.956 7.96c.043.032.083.067.121.105zm-2.585-16.997l-6.786-6.789V28.04l6.786-6.789zm-5.697 12.165l-1.089-1.09v13.577l6.786-6.789-5.697-5.698z"/>
</svg>
