<svg xmlns="http://www.w3.org/2000/svg" width="41" height="42">
    <path fill="#FFF" fill-rule="evenodd" d="M31.823 9.372c-6.509-6.678-17.065-6.678-23.573 0-3.256 3.339-4.884 7.713-4.884 12.088H.032c0-5.249 1.954-10.498 5.861-14.505 7.811-8.013 20.476-8.013 28.286 0L40.04.945v13.677H26.704l5.119-5.25zM8.25 33.547c6.508 6.678 17.064 6.678 23.573 0 3.255-3.339 4.883-7.713 4.883-12.087h3.334c0 5.249-1.953 10.497-5.861 14.504-7.81 8.013-20.475 8.013-28.286 0l-5.861 6.01V28.298h13.337L8.25 33.547z"/>
</svg>
