<svg xmlns="http://www.w3.org/2000/svg" width="61" height="61">
    <path fill="#FFF" fill-rule="evenodd" d="M52.106 52.164c-11.703 11.725-30.68 11.725-42.383 0-11.704-11.726-11.704-30.739 0-42.465 11.703-11.725 30.68-11.725 42.383 0 11.703 11.726 11.703 30.739 0 42.465zm-2.649-39.811c-10.241-10.261-26.844-10.261-37.085 0-10.242 10.262-10.242 26.896 0 37.157 10.241 10.261 26.844 10.261 37.085 0 10.242-10.261 10.242-26.896 0-37.157zM20.099 41.768l-4.482 4.49V36.04h10.199l-3.914 3.922c4.976 4.989 13.048 4.989 18.026 0a12.747 12.747 0 0 0 3.734-9.03h2.55c0 3.921-1.494 7.842-4.482 10.836-5.973 5.986-15.658 5.986-21.631 0zm19.829-19.867c-4.978-4.989-13.05-4.989-18.026 0a12.745 12.745 0 0 0-3.735 9.031h-2.55c0-3.922 1.494-7.843 4.482-10.837 5.973-5.986 15.658-5.986 21.631 0l4.482-4.49v10.218H36.014l3.914-3.922z"/>
</svg>
