<?xml version="1.0" standalone="no"?><!DOCTYPE svg PUBLIC "-//W3C//DTD SVG 1.1//EN" "http://www.w3.org/Graphics/SVG/1.1/DTD/svg11.dtd"><svg class="icon" width="16px" height="16.00px" viewBox="0 0 1024 1024" version="1.1" xmlns="http://www.w3.org/2000/svg"><path d="M675.829787 708.59554c-55.80498 155.525146-47.863101 248.318552-166.208463 248.318552-116.598578 0-110.427018-93.198635-166.202323-248.971421-37.393655-104.427374-140.097782-223.318158-140.097782-335.51652 0-169.090093 137.131217-306.160935 306.300105-306.160935 169.170934 0 306.306244 137.071865 306.306244 306.160935C815.928592 483.759819 713.351356 603.949178 675.829787 708.59554L675.829787 708.59554zM509.622348 901.250328c32.875758 0 45.332465-3.5345 62.407352-49.554626l-118.017904 14.762215C468.432227 898.013611 481.414913 901.250328 509.622348 901.250328L509.622348 901.250328zM427.092703 787.202852c6.423293 21.741163 11.712763 38.427194 16.636912 52.701293l138.091078-17.260106c3.069919-9.864672 6.359848-20.7373 9.998725-33.243125 2.2656-7.712659 4.901637-16.360619 7.352455-24.595164l-172.322717 21.528316C426.903392 786.608312 427.011862 786.927583 427.092703 787.202852L427.092703 787.202852zM418.742525 759.52856l189.320856-23.644513c2.955308-9.458419 6.382361-19.459191 9.780761-29.462009L401.616472 706.422038C407.974273 725.118865 413.684322 742.788294 418.742525 759.52856L418.742525 759.52856zM509.622348 121.92898c-138.199549 0-250.611781 112.363114-250.611781 250.498194 0 56.587809 37.555337 123.80777 73.880661 188.79283 16.431228 29.407774 33.075303 59.503209 46.935985 89.533153l259.889075 0c13.778818-29.898961 30.293957-59.882855 46.572712-89.205695 36.360116-65.369823 73.938989-132.967384 73.938989-189.120288C760.226966 234.292094 647.809617 121.92898 509.622348 121.92898L509.622348 121.92898zM509.622348 233.261625c-76.761268 0-139.233088 62.434981-139.233088 139.16555 0 7.690146-6.217608 13.915941-13.913894 13.915941-7.700379 0-13.932314-6.225795-13.932314-13.915941 0-92.086301 74.952063-166.996408 167.079296-166.996408 7.696286 0 13.920034 6.221702 13.920034 13.913894S517.317611 233.261625 509.622348 233.261625L509.622348 233.261625z" /></svg>