<svg xmlns="http://www.w3.org/2000/svg" width="60" height="60">
    <path fill="#FFF" fill-rule="evenodd" d="M30 60C13.433 60 0 46.567 0 30 0 13.432 13.433 0 30 0s30 13.432 30 30c0 16.567-13.433 30-30 30zm0-56.25C15.502 3.75 3.75 15.502 3.75 30S15.502 56.25 30 56.25 56.25 44.498 56.25 30 44.498 3.75 30 3.75zm13.316 42.894c-.838 0-1.63-.325-2.227-.919l-8.327-8.36c-1.948 1.149-4.154 1.809-6.478 1.809a12.759 12.759 0 0 1-9.101-3.783c-5.016-5.032-5.016-13.221.004-18.249a12.747 12.747 0 0 1 9.097-3.786c3.438 0 6.672 1.344 9.104 3.786 4.229 4.242 4.846 10.706 1.942 15.651l8.33 8.355a3.163 3.163 0 0 1-.007 4.46c-.711.711-1.502 1.036-2.337 1.036zM33.088 19.428a9.554 9.554 0 0 0-6.804-2.831 9.54 9.54 0 0 0-6.801 2.831c-3.761 3.768-3.761 9.906-.004 13.678 3.625 3.638 9.951 3.64 13.581.023l.052-.053c3.733-3.774 3.728-9.889-.024-13.648z"/>
</svg>
