<svg xmlns="http://www.w3.org/2000/svg" width="60" height="60">
    <path fill="#FFF" fill-rule="evenodd" d="M30 60C13.431 60 0 46.569 0 30 0 13.431 13.431 0 30 0c16.568 0 30 13.431 30 30 0 16.569-13.432 30-30 30zm20-32.5a2.5 2.5 0 0 0-2.5-2.5h-3.355a13.972 13.972 0 0 0-.608-1.465l2.357-2.356a2.505 2.505 0 0 0 0-3.538l-3.537-3.534a2.498 2.498 0 0 0-3.535 0l-2.355 2.356c-.476-.228-.965-.43-1.467-.608V12.5a2.5 2.5 0 0 0-2.5-2.5h-5a2.5 2.5 0 0 0-2.5 2.5v3.355c-.502.175-.991.38-1.466.608l-2.356-2.356a2.498 2.498 0 0 0-3.535 0l-3.535 3.534a2.502 2.502 0 0 0 0 3.538l2.356 2.356c-.228.474-.431.964-.608 1.465H12.5a2.5 2.5 0 0 0-2.5 2.5v5a2.5 2.5 0 0 0 2.5 2.5h3.356c.177.503.38.991.608 1.465l-2.356 2.358a2.498 2.498 0 0 0 0 3.535l3.535 3.536a2.5 2.5 0 0 0 3.535 0l2.356-2.354c.475.225.964.43 1.466.606V47.5a2.5 2.5 0 0 0 2.5 2.5h5a2.5 2.5 0 0 0 2.5-2.5v-3.354a15.22 15.22 0 0 0 1.467-.606l2.355 2.354a2.5 2.5 0 0 0 3.535 0l3.537-3.536a2.502 2.502 0 0 0 0-3.535l-2.357-2.356c.229-.476.432-.964.608-1.467H47.5a2.5 2.5 0 0 0 2.5-2.5v-5zm-3.75 5h-4.003a12.405 12.405 0 0 1-1.821 4.39l1.8 1.802 1.015 1.015a1.25 1.25 0 0 1 0 1.767l-1.767 1.768a1.25 1.25 0 0 1-1.768 0l-1.015-1.016-1.799-1.799a12.42 12.42 0 0 1-4.392 1.824V46.25a1.25 1.25 0 0 1-1.25 1.25h-2.5a1.25 1.25 0 0 1-1.25-1.25V42.251a12.415 12.415 0 0 1-4.391-1.824l-1.947 1.946-.868.869a1.25 1.25 0 0 1-1.768 0l-1.767-1.768a1.25 1.25 0 0 1 0-1.767l1.016-1.015 1.799-1.802a12.441 12.441 0 0 1-1.821-4.39H13.75a1.25 1.25 0 0 1-1.25-1.25v-2.5c0-.688.56-1.25 1.25-1.25h4.003a12.457 12.457 0 0 1 1.821-4.39l-1.799-1.801-1.016-1.014a1.253 1.253 0 0 1 0-1.77l1.767-1.767a1.249 1.249 0 0 1 1.768 0l1.016 1.015 1.799 1.8a12.47 12.47 0 0 1 4.391-1.824V13.75c0-.689.56-1.25 1.25-1.25h2.5c.691 0 1.25.561 1.25 1.25v4.004c1.596.322 3.08.952 4.392 1.819l1.799-1.8 1.015-1.015a1.249 1.249 0 0 1 1.768 0l1.767 1.767c.488.489.488 1.28 0 1.77l-1.015 1.014-1.799 1.801a12.417 12.417 0 0 1 1.822 4.39H46.25c.691 0 1.25.562 1.25 1.25v2.5a1.25 1.25 0 0 1-1.25 1.25zM30 22.5a7.5 7.5 0 1 0 0 15 7.5 7.5 0 1 0 0-15zm0 11.25a3.75 3.75 0 1 1 .001-7.501A3.75 3.75 0 0 1 30 33.75z"/>
</svg>
