<svg xmlns="http://www.w3.org/2000/svg" width="41" height="30">
    <path fill="#FFF" fill-rule="evenodd" d="M38.492 30c-1.346 0-2.434-1.118-2.434-2.5v-25c0-1.382 1.088-2.5 2.434-2.5 1.345 0 2.434 1.118 2.434 2.5v25c0 1.382-1.089 2.5-2.434 2.5zm-12.018 0c-1.345 0-2.434-1.118-2.434-2.5V9.504c0-1.381 1.089-2.499 2.434-2.499 1.346 0 2.434 1.118 2.434 2.499V27.5c0 1.382-1.088 2.5-2.434 2.5zm-12.018 0c-1.345 0-2.434-1.118-2.434-2.5V16.509c0-1.382 1.089-2.5 2.434-2.5 1.346 0 2.434 1.118 2.434 2.5V27.5c0 1.382-1.088 2.5-2.434 2.5zM2.439 30C1.094 30 .005 28.882.005 27.5v-3.987c0-1.382 1.089-2.5 2.434-2.5 1.345 0 2.434 1.118 2.434 2.5V27.5c0 1.382-1.089 2.5-2.434 2.5z"/>
</svg>
