<svg xmlns="http://www.w3.org/2000/svg" width="70" height="70">
    <path fill="#5561BB" fill-rule="evenodd" d="M35 70C15.671 70 0 54.329 0 35S15.671 0 35 0s35 15.671 35 35-15.671 35-35 35zm0-65.625C18.085 4.375 4.375 18.085 4.375 35S18.085 65.625 35 65.625c16.914 0 30.625-13.71 30.625-30.625S51.914 4.375 35 4.375zm17.189 35.04a11.214 11.214 0 0 1-3.392 1.822 7.534 7.534 0 0 1-.866 11.07 7.534 7.534 0 0 1-10.572-1.292 7.463 7.463 0 0 1-1.064-1.907c-.203.222-2.38.215-2.586-.01a7.519 7.519 0 0 1-1.068 1.917 7.535 7.535 0 0 1-10.572 1.292 7.533 7.533 0 0 1-.866-11.07c-1.196-.396-2.342-1-3.392-1.822-4.913-3.842-5.782-10.943-1.938-15.858 3.789-4.845 10.735-5.733 15.638-2.076-.909-1.194-2.472-2.679-5.06-3.493a.966.966 0 0 1-.634-1.213.96.96 0 0 1 1.212-.633c3.993 1.254 5.981 3.889 6.831 5.378.157-.168 2.169-.132 2.343.055.831-1.477 2.824-4.165 6.863-5.433a.959.959 0 0 1 1.212.633.966.966 0 0 1-.633 1.213c-2.489.782-4.038 2.199-4.965 3.372 4.892-3.498 11.705-2.587 15.447 2.197 3.844 4.915 2.974 12.016-1.938 15.858zM31.311 24.889a8.605 8.605 0 0 0-1.218-1.177 8.64 8.64 0 1 0-5.517 15.442c2.72.668.339 2.662.039 2.657a5.023 5.023 0 0 0-.999 8.518 5.02 5.02 0 0 0 7.048-.861 4.987 4.987 0 0 0 1.047-2.895c-4.303-6.537-4.421-15.019-.4-21.684zm20.723.306a8.64 8.64 0 0 0-12.127-1.483c-.452.354-.849.75-1.211 1.169 4.032 6.672 3.912 15.17-.406 21.712a4.987 4.987 0 0 0 1.046 2.875 5.02 5.02 0 0 0 7.048.861 5.023 5.023 0 0 0-.998-8.518c-.302.005-2.682-1.989.038-2.657a8.64 8.64 0 0 0 6.61-13.959zm-2.323 7.325a1.741 1.741 0 1 1-.001-3.483 1.741 1.741 0 0 1 .001 3.483zm-3.605-3.421a2.317 2.317 0 1 1 0-4.633 2.317 2.317 0 0 1 0 4.633zm-.643 17.268a1.828 1.828 0 1 1-3.656 0 1.828 1.828 0 0 1 3.656 0zm-18.886 1.828a1.828 1.828 0 1 1 0-3.656 1.828 1.828 0 0 1 0 3.656zm-2.651-19.096a2.317 2.317 0 1 1 0-4.634 2.317 2.317 0 0 1 0 4.634zm-3.605 3.421a1.742 1.742 0 1 1 .002-3.484 1.742 1.742 0 0 1-.002 3.484z"/>
</svg>
