<svg xmlns="http://www.w3.org/2000/svg" width="70" height="70">
    <path fill="#5561BB" fill-rule="evenodd" d="M35 70C15.671 70 0 54.329 0 35S15.671 0 35 0s35 15.671 35 35-15.671 35-35 35zm0-65.625C18.085 4.375 4.375 18.085 4.375 35S18.085 65.625 35 65.625 65.625 51.915 65.625 35 51.915 4.375 35 4.375zm10.746 43.236h-7.081v4.682c0 .985-.799 1.785-1.786 1.785h-3.758c-.986 0-1.786-.8-1.786-1.785v-4.682h-7.081c-2.114 0-3.41-2.317-2.304-4.118l8.76-9.289h-3.108c-1.244 0-1.821-1.543-.883-2.36l5.49-7.813h-1.181a1.345 1.345 0 0 1-1.138-2.062l3.117-4.947c.924-1.467 3.062-1.467 3.987 0l3.116 4.947a1.345 1.345 0 0 1-1.138 2.062h-1.18l5.489 7.813c.939.817.361 2.36-.882 2.36H39.29l8.76 9.289c1.106 1.801-.19 4.118-2.304 4.118z"/>
</svg>
