<svg xmlns="http://www.w3.org/2000/svg" width="70" height="70">
    <path fill="#5561BB" fill-rule="evenodd" d="M35 70C15.671 70 0 54.329 0 35S15.671 0 35 0s35 15.671 35 35-15.671 35-35 35zm0-65.625C18.085 4.375 4.375 18.085 4.375 35S18.085 65.625 35 65.625 65.625 51.915 65.625 35 51.915 4.375 35 4.375zM45.558 38.09a2.03 2.03 0 0 0-.576 1.815l1.145 6.259c.526 2.88-2.559 5.058-5.097 3.596l-5.015-2.89a2.033 2.033 0 0 0-2.03 0l-5.015 2.89c-2.537 1.462-5.623-.716-5.097-3.596l1.145-6.259a2.029 2.029 0 0 0-.575-1.815L19.87 33.6c-2.045-2.006-.881-5.486 1.959-5.859l5.999-.789a2.031 2.031 0 0 0 1.589-1.183l2.449-5.456c1.214-2.705 5.055-2.706 6.27 0l2.45 5.457c.289.643.89 1.09 1.589 1.182l5.996.789c2.841.373 4.004 3.853 1.96 5.859l-4.573 4.49z"/>
</svg>
