<svg xmlns="http://www.w3.org/2000/svg" width="70" height="70">
    <path fill="#5561BB" fill-rule="evenodd" d="M35 70C15.672 70 0 54.329 0 35S15.672 0 35 0c19.329 0 35 15.671 35 35S54.329 70 35 70zm0-65.625C18.085 4.375 4.375 18.085 4.375 35S18.085 65.625 35 65.625 65.625 51.915 65.625 35 51.915 4.375 35 4.375zm20.009 35.113c-1.818-.976-3.715-1.022-5.361-.734-.075.376-.146.749-.251 1.113 1.845.187 3.826.79 5.587 2.27.461.389.521 1.081.132 1.543a1.096 1.096 0 0 1-1.542.132c-1.524-1.285-3.315-1.736-4.95-1.814-.166.355-.389.672-.582 1.01 1.414.808 2.789 1.995 3.681 3.812a1.096 1.096 0 0 1-.982 1.576c-.402 0-.79-.226-.983-.611-.685-1.395-1.789-2.312-2.93-2.939-2.781 3.504-7.113 5.755-11.889 5.755-4.843 0-9.161-2.333-11.941-5.856-1.199.627-2.374 1.578-3.091 3.04a1.103 1.103 0 0 1-1.466.5 1.097 1.097 0 0 1-.5-1.465c.919-1.869 2.347-3.084 3.805-3.89-.172-.3-.309-.619-.458-.932-1.701.042-3.591.462-5.197 1.814a1.102 1.102 0 0 1-1.542-.132 1.097 1.097 0 0 1 .132-1.543c1.824-1.534 3.882-2.143 5.776-2.307a13.99 13.99 0 0 1-.253-1.027c-1.694-.328-3.666-.326-5.548.685a1.109 1.109 0 0 1-1.483-.449 1.097 1.097 0 0 1 .449-1.482c2.167-1.158 4.381-1.308 6.314-1.041-.024-.616-.094-1.221-.036-1.853.194-2.088.683-3.38.683-3.38s-3.604-9.754.321-11.067c3.207-1.073 5.347 2.565 5.347 2.565 3.644-1.89 8.367-1.89 8.367-1.89h.965s4.723 0 8.367 1.89c0 0 2.227-3.868 5.348-2.565 3.761 1.571.321 11.067.321 11.067s.473 2.14.349 5.213c1.877-.222 3.997-.051 6.075 1.061.534.286.731.949.449 1.482a1.109 1.109 0 0 1-1.483.449zM21.898 23.471c-1.216 1.349.243 4.563.243 4.563s1.007-1.587 1.945-2.674c0 0-.974-3.24-2.188-1.889zm4.504 11.323a1.687 1.687 0 1 0 3.375 0 1.687 1.687 0 0 0-3.375 0zm4.827-10.674c0-.602-.492-1.093-1.094-1.093-.602 0-1.094.491-1.094 1.093v3.965c0 .602.492 1.094 1.094 1.094.602 0 1.094-.492 1.094-1.094V24.12zm4.58-.684c0-.602-.492-1.093-1.094-1.093-.602 0-1.094.491-1.094 1.093v5.247c0 .602.492 1.094 1.094 1.094.602 0 1.094-.492 1.094-1.094v-5.247zm.854 14.232a2.14 2.14 0 0 0-.756.178 2.047 2.047 0 0 1-1.614 0 2.118 2.118 0 0 0-.753-.178c-1.127-.042-2.377.942-1.496 2.745.312.638 1.311 1.81 2.435 2.148v1.62c-1.474-.088-2.245-.487-2.601-.844-.402-.405-.419-.82-.419-.858a.622.622 0 0 0-.59-.637h-.03a.623.623 0 0 0-.619.59c-.004.098-.022.944.735 1.739.82.854 2.187 1.286 4.071 1.286 2.243 0 4.474-.223 4.948-2.888a.62.62 0 0 0-.504-.718c-.321-.03-.654.166-.718.504-.225 1.277-1.02 1.737-3.034 1.824v-1.643c1.111-.378 2.137-1.503 2.44-2.123.881-1.803-.369-2.787-1.495-2.745zm3.726-13.548c0-.602-.492-1.093-1.094-1.093-.602 0-1.094.491-1.094 1.093v3.965c0 .602.492 1.094 1.094 1.094.602 0 1.094-.492 1.094-1.094V24.12zm1.195 8.987a1.687 1.687 0 1 0 .002 3.374 1.687 1.687 0 0 0-.002-3.374zm6.666-10.056c-1.214-1.35-2.188 1.889-2.188 1.889 1.148 1.142 1.944 2.674 1.944 2.674s1.459-3.214.244-4.563z"/>
</svg>
