<svg xmlns="http://www.w3.org/2000/svg" width="60" height="60">
    <path fill="#FFF" fill-rule="evenodd" d="M30 0C13.432 0 0 13.432 0 30c0 16.567 13.432 30 30 30 16.567 0 30-13.433 30-30C60 13.432 46.567 0 30 0zm0 56.25C15.502 56.25 3.75 44.498 3.75 30S15.502 3.75 30 3.75 56.25 15.502 56.25 30 44.498 56.25 30 56.25z"/>
    <path fill="#FFF" fill-rule="evenodd" d="M43.359 40.312a1.874 1.874 0 0 1-1.875-1.875v-18.75a1.874 1.874 0 1 1 3.75 0v18.75a1.873 1.873 0 0 1-1.875 1.875zm-9.257 0a1.873 1.873 0 0 1-1.875-1.875V24.941c0-1.037.838-1.875 1.875-1.875 1.036 0 1.875.838 1.875 1.875v13.496a1.874 1.874 0 0 1-1.875 1.875zm-9.258 0a1.873 1.873 0 0 1-1.875-1.875v-8.243a1.874 1.874 0 1 1 3.75 0v8.243a1.874 1.874 0 0 1-1.875 1.875zm-9.258 0a1.874 1.874 0 0 1-1.875-1.875v-2.99a1.874 1.874 0 1 1 3.75 0v2.99a1.873 1.873 0 0 1-1.875 1.875z" opacity=".4"/>
</svg>
