<svg xmlns="http://www.w3.org/2000/svg" width="60" height="60">
    <path fill="#FFF" fill-rule="evenodd" d="M30 60C13.432 60 0 46.567 0 30S13.432 0 30 0c16.567 0 30 13.433 30 30S46.567 60 30 60zm0-56.25C15.502 3.75 3.75 15.502 3.75 30S15.502 56.25 30 56.25 56.25 44.498 56.25 30 44.498 3.75 30 3.75zm4.102 36.562a1.873 1.873 0 0 1-1.875-1.875V24.941c0-1.037.838-1.875 1.875-1.875 1.036 0 1.875.838 1.875 1.875v13.496a1.874 1.874 0 0 1-1.875 1.875zm-9.258 0a1.873 1.873 0 0 1-1.875-1.875v-8.243a1.874 1.874 0 1 1 3.75 0v8.243a1.874 1.874 0 0 1-1.875 1.875zm-9.258 0a1.874 1.874 0 0 1-1.875-1.875v-2.99a1.874 1.874 0 1 1 3.75 0v2.99a1.873 1.873 0 0 1-1.875 1.875z"/>
    <path fill="#FFF" fill-rule="evenodd" d="M43.359 17.813a1.874 1.874 0 0 0-1.875 1.875v18.749c0 1.037.839 1.875 1.875 1.875a1.873 1.873 0 0 0 1.875-1.875V19.688a1.873 1.873 0 0 0-1.875-1.875z" opacity=".4"/>
</svg>
